# xmcd CD database file
#
# Track frame offsets:
#	150
#	23352
#	56573
#	71756
#	97746
#	128316
#	152051
#	167661
#	184590
#	198113
#	216871
#	232626
#	261511
#	279817
#	314202
#
# Disc length: 4410 seconds
#
# Revision: 0
# Processed by: cddbd v1.5.2PL0 Copyright (c) Steve Scherf et al.
# Submitted via: CDex 1.51
#
DISCID=bd11380f
DTITLE=Buddy Guy - Can't Quit The Blues - CD3
DYEAR=2006
DGENRE=Blues
TTITLE0=Nobody Understands Me But My Guitar
TTITLE1=Baby Please Don't Leave Me
TTITLE2=Done Got Old
TTITLE3=Honey Bee
TTITLE4=Tramp
TTITLE5=Crawlin' Kingsnake
TTITLE6=Moanin' And Groanin'
TTITLE7=Bad Life Blues
TTITLE8=I Can't Be Satisfied
TTITLE9=First Time I Met The Blues
TTITLE10=I'd Rather Be Blind, Crippled And Crazy
TTITLE11=Somebody's Sleeping In My Bed
TTITLE12=I Miss You
TTITLE13=Cut You Loose
TTITLE14=The Price You Gotta Pay
EXTD=YEAR: 2006
EXTT0=
EXTT1=
EXTT2=
EXTT3=
EXTT4=
EXTT5=
EXTT6=
EXTT7=
EXTT8=
EXTT9=
EXTT10=
EXTT11=
EXTT12=
EXTT13=
EXTT14=
PLAYORDER=
